<?xml version="1.0" encoding="UTF-8"?>
<svg id="Layer_2" xmlns="http://www.w3.org/2000/svg" version="1.1" viewBox="0 0 975 384">
  <!-- Generator: Adobe Illustrator 29.1.0, SVG Export Plug-In . SVG Version: 2.1.0 Build 142)  -->
  <defs>
    <style>
      .st0 {
        fill: #5b5b5b;
      }
    </style>
  </defs>
  <path class="st0" d="M230.1,127.6v-11.6h31.9v10.8c0,15,6.5,20.7,17.9,20.7s16.9-6.9,16.9-19.1V22.1h34.7v107.1c0,12.6-3,22.8-9.5,30.5-8.1,10.2-21.7,16.5-40,16.5-34.5,0-51.8-18.7-51.8-48.6Z"/>
  <path class="st0" d="M355.5,22.1h113.4v28.8h-78.8v30.1h68.3v27.4h-68.3v35.1h80.2v29.7h-114.8V22.1Z"/>
  <path class="st0" d="M491.6,22.1h110.9v29.5h-76.4v32.9h63.8v28.2h-63.8v60.5h-34.5V22.1Z"/>
  <path class="st0" d="M621.6,22.1h110.9v29.5h-76.4v32.9h63.8v28.2h-63.8v60.5h-34.5V22.1Z"/>
  <path class="st0" d="M36.9,205.3h35.1l14.4,59.1c5.3,21.7,8.7,57.7,8.7,57.7h.4s5.5-37.8,10-58.9l13.4-57.9h32.7l13.4,57.7c4.7,21.1,9.8,59.1,9.8,59.1h.4s4.3-36.4,9.5-57.9l14-58.9h35.1l-41.4,151.1h-33.9l-14.6-63.4c-4.3-18.7-8.3-52.2-8.3-52.2h-.4s-4.3,33.5-8.3,52.2l-14.8,63.4h-34.1l-41-151.1Z"/>
  <path class="st0" d="M282.2,205.3h36l54.6,151.1h-36.6l-9.5-28.8h-54.8l-9.3,28.8h-34.7l54.4-151.1ZM280,302.9h38.8l-9.1-28.2c-6.5-20.7-9.8-40.2-9.8-40.2h-.4s-5.3,25.4-10.2,40.2l-9.3,28.2Z"/>
  <path class="st0" d="M388.1,205.3h34.5v121.5h69.7v29.7h-104.2v-151.1Z"/>
  <path class="st0" d="M510.8,205.3h34.5v24.8c0,13.8-.8,27.6-1.2,35.8l56.5-60.5h41.4l-58.3,60.7,62,90.4h-40.4l-46.1-68.5-13.8,14.4v54h-34.5v-151.1Z"/>
  <path class="st0" d="M660.3,205.3h113.4v28.8h-78.8v30.1h68.3v27.4h-68.3v35.1h80.2v29.7h-114.8v-151.1Z"/>
  <path class="st0" d="M796.3,205.3h71.9c29.5,0,51.6,15.6,51.6,43.3s-8.7,30.5-28,36.8v.6c15,4.7,21.7,13,23.8,29.3,2.8,20.5,1.6,37.6,6.5,39.6v1.6h-34.1c-4.1-2.2-3.7-18.3-5.5-34.9-1.8-15-9.3-22.8-26-22.8h-25.6v57.7h-34.5v-151.1ZM830.9,273.2h30.7c15.4,0,23.8-7.9,23.8-19.9s-7.5-20.5-22.8-20.5h-31.7v40.4Z"/>
</svg>